<svg version="1.0" xmlns="http://www.w3.org/2000/svg"
 width="512.000000pt" height="512.000000pt" viewBox="0 0 512.000000 512.000000"
 preserveAspectRatio="xMidYMid meet">

  <g transform="translate(0.000000,512.000000) scale(0.100000,-0.100000)"
     fill="#fffffff" stroke="none">
    <path d="M2325 4949 c-211 -20 -499 -94 -702 -181 -1136 -487 -1721 -1750
    -1352 -2922 199 -634 631 -1138 1231 -1436 1080 -537 2383 -184 3060 830 208
    312 352 722 387 1100 107 1152 -634 2222 -1754 2534 -267 74 -583 102 -870 75z
    m361 -342 c231 -117 438 -492 563 -1020 15 -64 41 -199 41 -214 0 -10 -153
    -13 -731 -13 l-731 0 7 48 c20 141 98 426 162 591 127 330 306 568 471 625 65
    22 154 16 218 -17z m-786 -81 c0 -2 -17 -33 -39 -68 -148 -244 -272 -601 -341
    -982 -11 -60 -22 -111 -23 -113 -2 -2 -196 -2 -431 -1 l-426 3 63 125 c99 197
    204 345 357 504 210 217 432 371 700 483 121 51 140 58 140 49z m1485 -60
    c440 -188 814 -542 1032 -976 l63 -125 -426 -3 c-235 -1 -429 -1 -431 1 -2 2
    -12 53 -23 113 -65 359 -190 725 -326 954 -30 51 -54 94 -54 97 0 7 39 -7 165
    -61z m-1933 -1548 c-9 -158 -9 -558 0 -715 l8 -123 -459 0 c-253 0 -462 3
    -464 8 -3 4 -15 66 -28 137 -19 108 -23 165 -23 335 0 170 4 227 23 335 13 72
    25 133 28 138 2 4 211 7 464 7 l459 0 -8 -122z m1895 15 c10 -139 10 -607 0
    -745 l-9 -108 -778 0 -778 0 -9 108 c-4 59 -8 226 -8 372 0 146 4 313 8 373
    l9 107 778 0 778 0 9 -107z m1236 100 c3 -5 15 -66 28 -138 33 -185 33 -482 0
    -670 -13 -71 -25 -133 -28 -137 -2 -5 -211 -8 -463 -8 l-460 0 8 128 c4 70 7
    228 7 352 0 124 -3 282 -7 353 l-8 127 460 0 c252 0 461 -3 463 -7z m-3079
    -1300 c3 -16 10 -57 16 -93 58 -343 197 -740 341 -979 22 -35 38 -66 35 -68
    -8 -8 -233 89 -331 144 -395 219 -727 575 -899 966 l-26 57 429 0 429 0 6 -27z
    m1786 15 c0 -81 -98 -450 -167 -627 -120 -313 -270 -522 -437 -609 -73 -38
    -179 -38 -252 0 -167 87 -317 296 -437 609 -64 165 -142 450 -162 592 l-7 47
    731 0 c578 0 731 -3 731 -12z m1164 -45 c-174 -396 -515 -759 -918 -978 -86
    -46 -305 -139 -312 -132 -3 2 20 46 50 96 130 221 252 570 316 906 12 61 23
    122 26 138 l6 27 429 0 429 0 -26 -57z"/>
  </g>
</svg>

